<svg xmlns="http://www.w3.org/2000/svg" xmlns:xlink="http://www.w3.org/1999/xlink" width="45" zoomAndPan="magnify" viewBox="0 0 33.75 30.000001" height="40" preserveAspectRatio="xMidYMid meet" version="1.0"><defs><clipPath id="2142431ac7"><path d="M 0.421875 1.453125 L 33.085938 1.453125 L 33.085938 27.582031 L 0.421875 27.582031 Z M 0.421875 1.453125 " clip-rule="nonzero"/></clipPath></defs><g clip-path="url(#2142431ac7)"><path fill="#0080ca" d="M 11.855469 14.515625 C 15.460938 14.515625 18.386719 11.59375 18.386719 7.984375 C 18.386719 4.375 15.460938 1.453125 11.855469 1.453125 C 8.246094 1.453125 5.324219 4.375 5.324219 7.984375 C 5.324219 11.59375 8.246094 14.515625 11.855469 14.515625 Z M 16.425781 16.148438 L 15.574219 16.148438 C 14.441406 16.667969 13.183594 16.964844 11.855469 16.964844 C 10.527344 16.964844 9.273438 16.667969 8.132812 16.148438 L 7.28125 16.148438 C 3.496094 16.148438 0.421875 19.222656 0.421875 23.007812 L 0.421875 25.132812 C 0.421875 26.484375 1.519531 27.582031 2.871094 27.582031 L 16.902344 27.582031 C 16.78125 27.234375 16.726562 26.867188 16.769531 26.492188 L 17.117188 23.386719 L 17.175781 22.820312 L 17.582031 22.417969 L 21.527344 18.472656 C 20.273438 17.058594 18.464844 16.148438 16.425781 16.148438 Z M 18.738281 23.5625 L 18.390625 26.675781 C 18.335938 27.199219 18.773438 27.636719 19.289062 27.574219 L 22.398438 27.230469 L 29.4375 20.191406 L 25.777344 16.53125 Z M 32.726562 15.175781 L 30.792969 13.242188 C 30.320312 12.765625 29.542969 12.765625 29.066406 13.242188 L 26.929688 15.378906 L 30.59375 19.039062 L 32.726562 16.90625 C 33.203125 16.425781 33.203125 15.652344 32.726562 15.175781 Z M 32.726562 15.175781 " fill-opacity="1" fill-rule="nonzero"/></g></svg>